<?xml version="1.0" encoding="UTF-8"?>
<svg xmlns="http://www.w3.org/2000/svg" onmouseup="{ if(window.parent.document.onmouseup) window.parent.document.onmouseup(arguments[0]);}" viewBox="0 0 36 36" height="128" width="128" xmlns:xlink="http://www.w3.org/1999/xlink"><defs><circle data-cppathid="10000" r="16" cy="18" cx="18" id="play-b"/><filter filterUnits="objectBoundingBox" y="-9.4%" x="-9.4%" height="118.8%" width="118.8%" id="play-a"><feOffset result="shadowOffsetOuter1" in="SourceAlpha"/><feGaussianBlur stdDeviation="1" result="shadowBlurOuter1" in="shadowOffsetOuter1"/><feComposite result="shadowBlurOuter1" operator="out" in2="SourceAlpha" in="shadowBlurOuter1"/><feColorMatrix values="0 0 0 0 0   0 0 0 0 0   0 0 0 0 0  0 0 0 0.5 0" in="shadowBlurOuter1"/></filter></defs><g fill-rule="evenodd" fill="none"><rect data-cppathid="10001" opacity="0" fill="#03FF00" height="128" width="128"/><use xlink:href="#play-b" filter="url(#play-a)" fill="#000"/><circle style="fill:#ffffff" data-cppathid="10002" stroke-width="2" stroke-linejoin="square" stroke="#FFF" fill="#000" r="15" cy="18" cx="18"/><path style="fill:#663399" data-cppathid="10003" d="M18,10 C13.581722,10 10,13.581722 10,18 C10,22.418278 13.581722,26 18,26 C22.418278,26 26,22.418278 26,18 C26,15.8782681 25.1571453,13.8434368 23.6568542,12.3431458 C22.1565632,10.8428547 20.1217319,10 18,10 Z M22.269,18.43 L16.255,21.93 C16.1778222,21.9757946 16.0897417,21.9999736 16,22 L15.5,22 C15.2238576,22 15,21.7761424 15,21.5 L15,14.5 C15,14.2238576 15.2238576,14 15.5,14 L16,14 C16.0897417,14.0000264 16.1778222,14.0242054 16.255,14.07 L22.269,17.57 C22.4207933,17.6600688 22.513853,17.8234962 22.513853,18 C22.513853,18.1765038 22.4207933,18.3399312 22.269,18.43 Z" fill-rule="nonzero" fill="#FFF"/></g></svg>