<?xml version="1.0" encoding="UTF-8"?>
<svg xmlns="http://www.w3.org/2000/svg" onmouseup="{ if(window.parent.document.onmouseup) window.parent.document.onmouseup(arguments[0]);}" viewBox="0 0 36 36" height="128" width="128" xmlns:xlink="http://www.w3.org/1999/xlink"><defs><circle data-cppathid="10000" r="16" cy="18" cx="18" id="image-b"/><filter filterUnits="objectBoundingBox" y="-9.4%" x="-9.4%" height="118.8%" width="118.8%" id="image-a"><feOffset result="shadowOffsetOuter1" in="SourceAlpha"/><feGaussianBlur stdDeviation="1" result="shadowBlurOuter1" in="shadowOffsetOuter1"/><feComposite result="shadowBlurOuter1" operator="out" in2="SourceAlpha" in="shadowBlurOuter1"/><feColorMatrix values="0 0 0 0 0   0 0 0 0 0   0 0 0 0 0  0 0 0 0.5 0" in="shadowBlurOuter1"/></filter></defs><g fill-rule="evenodd" fill="none"><rect data-cppathid="10001" opacity="0" fill="#03FF00" height="128" width="128"/><use xlink:href="#image-b" filter="url(#image-a)" fill="#000"/><circle style="fill:#ffffff" data-cppathid="10002" stroke-width="2" stroke-linejoin="square" stroke="#FFF" fill="#000" r="15" cy="18" cx="18"/><circle data-cppathid="10003" fill-rule="nonzero" fill="#FFF" r="1.25" cy="15.25" cx="21.25"/><path style="fill:#663399" data-cppathid="10004" d="M26.437,11.0008599 L9.562,11.0008599 C9.26914622,10.9849138 9.01823992,11.20814 9,11.5008599 L9,24.5008599 C9.01823992,24.7935798 9.26914622,25.016806 9.562,25.0008599 L26.437,25.0008599 C26.7302336,25.0173765 26.9817649,24.7939917 27,24.5008599 L27,11.5008599 C26.9817649,11.2077282 26.7302336,10.9843434 26.437,11.0008599 Z M26,20.0008599 C25.0540079,19.4481396 23.9994769,19.1069778 22.909,19.0008599 C21.44,19.0008599 20.171,21.0008599 18.701,21.0008599 C17.231,21.0008599 15.362,17.0008599 13.892,17.0008599 C12.556,17.0008599 10,21.0008599 10,21.0008599 L10,12.0008599 L26,12.0008599 L26,20.0008599 Z" fill-rule="nonzero" fill="#FFF"/></g></svg>