<?xml version="1.0" encoding="UTF-8"?>
<svg xmlns="http://www.w3.org/2000/svg" onmouseup="{ if(window.parent.document.onmouseup) window.parent.document.onmouseup(arguments[0]);}" viewBox="0 0 36 36" height="128" width="128" xmlns:xlink="http://www.w3.org/1999/xlink"><defs><circle data-cppathid="10000" r="16" cy="18" cx="18" id="info-b"/><filter filterUnits="objectBoundingBox" y="-9.4%" x="-9.4%" height="118.8%" width="118.8%" id="info-a"><feOffset result="shadowOffsetOuter1" in="SourceAlpha"/><feGaussianBlur stdDeviation="1" result="shadowBlurOuter1" in="shadowOffsetOuter1"/><feComposite result="shadowBlurOuter1" operator="out" in2="SourceAlpha" in="shadowBlurOuter1"/><feColorMatrix values="0 0 0 0 0   0 0 0 0 0   0 0 0 0 0  0 0 0 0.5 0" in="shadowBlurOuter1"/></filter></defs><g fill-rule="evenodd" fill="none"><rect data-cppathid="10001" opacity="0" fill="#7ED321" height="128" width="128"/><use xlink:href="#info-b" filter="url(#info-a)" fill="#000"/><circle style="fill:#ffffff" data-cppathid="10002" stroke-width="2" stroke-linejoin="square" stroke="#FFF" fill="#000" r="15" cy="18" cx="18"/><path style="fill:#663399" data-cppathid="10003" d="M22,26 C22,26.6162441 21.6082492,27 21,27 L16,27 C15.3917508,27 15,26.6162441 15,26 L15,24 C15,23.9551845 15.3917508,23.5714286 16,24 L17,24 L17,18 L16,18 C15.3917508,18.4285714 15,18.0448155 15,18 L15,16 C15,15.3837559 15.3917508,15 16,15 L19,15 C19.8582492,15 20.25,15.3837559 20,16 L20,24 L21,24 C21.6082492,23.5714286 22,23.9551845 22,24 L22,26 Z" fill="#FFF"/><circle style="fill:#663399" data-cppathid="10004" fill="#FFF" r="2.5" cy="10.5" cx="17.5"/></g></svg>